<svg xmlns="http://www.w3.org/2000/svg" xmlns:xlink="http://www.w3.org/1999/xlink" width="148" height="20">
  <title>Line coverage 100%</title>
  <defs>
    <linearGradient id="gl" x2="0" y2="100%">
      <stop offset="0" stop-color="#bbb" stop-opacity=".1"/>
      <stop offset="1" stop-opacity=".1"/>
    </linearGradient>
    <linearGradient id="c">
      <stop offset="0" stop-color="#d40000"/>
      <stop offset="1" stop-color="#ff2a2a"/>
    </linearGradient>
    <linearGradient id="a">
      <stop offset="0" stop-color="#e0e0de"/>
      <stop offset="1" stop-color="#fff"/>
    </linearGradient>
    <linearGradient id="b">
      <stop offset="0" stop-color="#37c837"/>
      <stop offset="1" stop-color="#217821"/>
    </linearGradient>
    <linearGradient xlink:href="#a" id="e" x1="106.44" x2="69.96" y1="-11.96" y2="-46.84" gradientTransform="matrix(-.8426 -.00045 -.00045 -.8426 -94.27 -75.82)" gradientUnits="userSpaceOnUse"/>
    <linearGradient xlink:href="#b" id="f" x1="56.19" x2="77.97" y1="-23.45" y2="10.62" gradientTransform="matrix(.8426 .00045 .00045 .8426 94.27 75.82)" gradientUnits="userSpaceOnUse"/>
    <linearGradient xlink:href="#c" id="g" x1="79.98" x2="132.9" y1="10.79" y2="10.79" gradientTransform="matrix(.8426 .00045 .00045 .8426 94.27 75.82)" gradientUnits="userSpaceOnUse"/>
    <clipPath id="bdgclip"><rect width="148" height="20" rx="3" fill="#fff"/></clipPath>
    <g id="ghicon" transform="matrix(.04486 0 0 .04481 -.48 -.63)">
      <rect width="52.92" height="52.92" x="-109.72" y="-27.13" fill="url(#e)" transform="rotate(-135)"/>
      <rect width="52.92" height="52.92" x="70.19" y="-39.18" fill="url(#f)" transform="rotate(45)"/>
      <rect width="52.92" height="52.92" x="80.05" y="-15.74" fill="url(#g)" transform="rotate(45)"/>
    </g>
  </defs>
  <g clip-path="url(#bdgclip)">
    <path fill="#555" d="M0 0h108v20H0z"/>
    <path fill="#97C50F" d="M108 0h40v20H108z"/>
    <path fill="url(#gl)" d="M0 0h148v20H0z"/>
  </g>
  <use xlink:href="#ghicon" transform="translate(3,1) scale(3.5)"/>
  <g fill="#fff" font-family="DejaVu Sans,Verdana,Geneva,sans-serif" font-size="11">
    <text x="22" y="15" fill="#010101" fill-opacity=".3">Line coverage</text>
    <text x="22" y="14">Line coverage</text>
    <text x="128" y="15" fill="#010101" fill-opacity=".3" text-anchor="middle">100%</text>
    <text x="128" y="14" text-anchor="middle">100%</text>
  </g>
</svg>
